<svg width="16" height="16" viewBox="0 0 16 16" fill="none" xmlns="http://www.w3.org/2000/svg">
<path fill-rule="evenodd" clip-rule="evenodd" d="M0.0745239 7.76223C0.0745239 12.0493 3.54967 15.5245 7.83675 15.5245C12.1238 15.5245 15.599 12.0493 15.599 7.76223C15.599 3.47515 12.1238 0 7.83675 0C3.54967 0 0.0745239 3.47515 0.0745239 7.76223Z" fill="#C5C5C5"/>
<path d="M11.1873 10.3003L11.1873 10.3003L11.1864 10.2994L9.02632 8.21807L9.02608 8.21785L8.55764 7.77239L11.1863 5.24583C11.2436 5.19074 11.2912 5.12851 11.3214 5.05882C11.3506 4.99146 11.3687 4.9174 11.3687 4.84219C11.3687 4.76541 11.3573 4.68994 11.3207 4.6188C11.2922 4.55328 11.2514 4.48555 11.1971 4.43337L11.1971 4.43332L11.1951 4.4316C11.1389 4.38298 11.0749 4.3378 11.0033 4.3091C10.931 4.28018 10.8489 4.26927 10.7746 4.26927C10.6972 4.26927 10.6212 4.28645 10.5472 4.3138L10.5472 4.31378L10.5459 4.31428C10.4743 4.34298 10.4097 4.38835 10.3575 4.43855L7.30867 7.36894C7.25486 7.42066 7.21356 7.48332 7.18432 7.55078L7.1843 7.55077L7.18378 7.55209C7.15519 7.62353 7.1371 7.69725 7.1371 7.77259C7.1371 7.84779 7.15512 7.92186 7.18432 7.98921C7.21356 8.05667 7.25486 8.11933 7.30867 8.17105L10.3575 11.1014L10.3575 11.1015L10.3585 11.1024C10.4711 11.2049 10.6182 11.2552 10.7692 11.2552C10.9226 11.2552 11.0696 11.193 11.1755 11.0911C11.287 10.984 11.3468 10.8473 11.3471 10.6988C11.3528 10.5496 11.2929 10.4074 11.1873 10.3003Z" fill="white" stroke="white" stroke-width="0.1"/>
<path d="M4.48507 5.22419L4.48506 5.2242L4.48599 5.22509L6.64603 7.3064L6.64627 7.30663L7.11471 7.75208L4.48604 10.2786C4.42872 10.3337 4.38113 10.396 4.35092 10.4657C4.32172 10.533 4.3037 10.6071 4.3037 10.6823C4.3037 10.7591 4.31501 10.8345 4.35161 10.9057C4.38019 10.9712 4.42098 11.0389 4.47526 11.0911L4.47521 11.0912L4.4772 11.0929C4.53341 11.1415 4.59742 11.1867 4.66908 11.2154C4.7413 11.2443 4.82344 11.2552 4.89775 11.2552C4.97518 11.2552 5.05118 11.238 5.12516 11.2107L5.12517 11.2107L5.12642 11.2102C5.19808 11.1815 5.26262 11.1361 5.31485 11.0859L8.36368 8.15553C8.41749 8.10381 8.45878 8.04115 8.48803 7.97369L8.48805 7.9737L8.48857 7.97238C8.51716 7.90094 8.53525 7.82722 8.53525 7.75189C8.53525 7.67668 8.51722 7.60262 8.48803 7.53526C8.45878 7.46781 8.41749 7.40515 8.36368 7.35342L5.31485 4.42303L5.31486 4.42302L5.31386 4.42211C5.20128 4.31959 5.05417 4.26929 4.90313 4.26929C4.74978 4.26929 4.6028 4.33151 4.49681 4.43338C4.38537 4.5405 4.32551 4.67721 4.32525 4.82568C4.31957 4.97487 4.37947 5.11705 4.48507 5.22419Z" fill="white" stroke="white" stroke-width="0.1"/>
</svg>
