<svg width="24" height="25" viewBox="0 0 24 25" fill="none" xmlns="http://www.w3.org/2000/svg">
<path d="M23.9288 12.2998C23.9288 11.3105 23.8507 10.5885 23.6816 9.83984H12.6865V14.3052H19.1404C19.0103 15.4149 18.3077 17.086 16.7462 18.209L16.7243 18.3585L20.2008 21.1257L20.4416 21.1504C22.6536 19.0513 23.9288 15.963 23.9288 12.2998Z" fill="white"/>
<path d="M12.6866 24.0648C15.8485 24.0648 18.5029 22.9952 20.4417 21.1503L16.7463 18.2089C15.7574 18.9175 14.4302 19.4122 12.6866 19.4122C9.58978 19.4122 6.96139 17.3133 6.02444 14.4121L5.8871 14.4241L2.27225 17.2985L2.22498 17.4335C4.15072 21.3641 8.10636 24.0648 12.6866 24.0648Z" fill="white"/>
<path d="M6.02441 14.4121C5.77719 13.6634 5.63411 12.8612 5.63411 12.0323C5.63411 11.2034 5.77719 10.4012 6.0114 9.65256L6.00485 9.49311L2.3447 6.57251L2.22495 6.63104C1.43125 8.26212 0.97583 10.0938 0.97583 12.0323C0.97583 13.9709 1.43125 15.8024 2.22495 17.4335L6.02441 14.4121Z" fill="white"/>
<path d="M12.687 4.65252C14.8859 4.65252 16.3693 5.62848 17.2151 6.44407L20.5201 3.12844C18.4903 1.18988 15.8488 0 12.687 0C8.10672 0 4.15109 2.7006 2.22534 6.63117L6.0118 9.6527C6.96175 6.75154 9.59014 4.65252 12.687 4.65252Z" fill="white"/>
</svg>
