<svg width="16" height="19" viewBox="0 0 16 19" fill="none" xmlns="http://www.w3.org/2000/svg">
<path fill-rule="evenodd" clip-rule="evenodd" d="M10.5463 0.612516C9.63118 0.217336 8.64617 0.00936833 7.64937 0.000872911C6.64587 -0.0146663 5.6497 0.174157 4.7215 0.555848C3.79329 0.937541 2.95246 1.50412 2.25018 2.2211C0.824292 3.6651 0.0172245 5.60791 0.000266042 7.63719C-0.0166914 9.66648 0.757794 11.6225 2.15935 13.0901L6.76128 17.8535C6.8539 17.9507 6.96498 18.0284 7.08802 18.0822C7.21105 18.1359 7.34357 18.1645 7.47781 18.1664C7.61186 18.1694 7.74502 18.144 7.86853 18.0918C7.99204 18.0396 8.10308 17.9619 8.19434 17.8636L12.877 13.1709C14.3043 11.7282 15.1131 9.78611 15.132 7.75682C15.1508 5.72753 14.3781 3.77077 12.9779 2.30184C12.2883 1.58209 11.4615 1.0077 10.5463 0.612516ZM7.48762 10.3105C8.83666 10.3105 9.93027 9.2169 9.93027 7.86786C9.93027 6.51882 8.83666 5.42521 7.48762 5.42521C6.13858 5.42521 5.04497 6.51882 5.04497 7.86786C5.04497 9.2169 6.13858 10.3105 7.48762 10.3105Z" fill="#4C4F4D"/>
</svg>
